<?xml version="1.0" encoding="utf-8"?>
<!-- Generator: Adobe Illustrator 21.1.0, SVG Export Plug-In . SVG Version: 6.00 Build 0)  -->
<svg version="1.1" id="Layer_1" xmlns="http://www.w3.org/2000/svg" xmlns:xlink="http://www.w3.org/1999/xlink" x="0px" y="0px"
	 viewBox="0 0 202 73.7" style="enable-background:new 0 0 202 73.7;" xml:space="preserve">
<style type="text/css">
	.st0{fill:#19242F;}
</style>
<g>
	<g>
		<g>
			<path class="st0" d="M74.6,58.1v-40h8.9c4.2,0,7.1,0.9,8.8,2.6c1.7,1.7,2.6,4.7,2.6,8.9v15.7c0,4.4-0.9,7.6-2.6,9.7
				c-1.7,2.1-4.7,3.1-8.8,3.1H74.6z M80.3,53.8h3.1c0.9,0,1.7-0.1,2.4-0.3c0.7-0.2,1.2-0.5,1.6-0.9c0.4-0.5,0.7-0.9,1-1.3
				c0.2-0.4,0.4-1,0.5-1.9s0.2-1.6,0.2-2.1c0-0.6,0-1.4,0-2.6c0-0.4,0-0.7,0-0.9V31c0-0.7,0-1.3,0-1.7c0-0.4,0-0.9-0.1-1.5
				c0-0.6-0.1-1.1-0.2-1.4s-0.2-0.7-0.3-1.1c-0.1-0.4-0.3-0.8-0.5-1s-0.4-0.5-0.7-0.7c-0.3-0.3-0.6-0.5-1-0.6s-0.8-0.2-1.3-0.3
				c-0.5-0.1-1.1-0.1-1.7-0.1h-3V53.8z"/>
			<path class="st0" d="M103.8,58.5c-1.6,0-2.9-0.7-4.1-2.1C98.6,55,98,53.5,98,51.7c0-1.4,0.2-2.6,0.7-3.8c0.5-1.1,1-2,1.5-2.7
				s1.4-1.4,2.6-2.1c1.2-0.7,2.1-1.2,2.8-1.5c0.6-0.3,1.7-0.7,3.3-1.3c0.3-0.1,0.5-0.2,0.6-0.2V38c0-1.4-0.2-2.6-0.6-3.4
				c-0.4-0.8-1.2-1.2-2.3-1.2c-1,0-1.7,0.3-2.1,1s-0.7,1.6-0.7,2.8c0,0.2,0,0.4,0,0.7h-5.7c0-2.7,0.8-4.9,2.3-6.5
				c1.5-1.6,3.6-2.4,6.3-2.4c2.7,0,4.8,0.8,6.3,2.5c1.5,1.6,2.3,3.8,2.3,6.5v13c0,3,0.2,5.4,0.7,7.1h-5.7l-0.8-4.3
				c-0.3,0.6-0.5,1.1-0.7,1.4c-0.2,0.3-0.5,0.7-0.8,1.2c-0.4,0.5-0.7,0.9-1.1,1.1c-0.4,0.3-0.8,0.5-1.3,0.7
				C105.1,58.4,104.5,58.5,103.8,58.5z M106.7,53.8c0.4,0,0.8-0.1,1.2-0.4c0.4-0.2,0.7-0.5,0.9-0.7c0.2-0.2,0.4-0.5,0.7-0.9
				c0-0.1,0.1-0.1,0.1-0.2v-7.9c-0.2,0.2-0.6,0.4-1.2,0.8c-0.6,0.3-1,0.6-1.3,0.8s-0.7,0.5-1.2,0.9s-0.8,0.7-1.1,1.1
				c-0.3,0.3-0.5,0.8-0.7,1.3s-0.3,1-0.3,1.6C103.8,52.6,104.8,53.8,106.7,53.8z"/>
			<path class="st0" d="M127.2,58.5c-2.2,0-3.9-0.6-4.9-1.7c-1-1.1-1.5-2.9-1.6-5.2V33.8h-2.9v-4.3h2.9v-10h5.7v10h4.3v4.3h-4.3
				v16.7c0,1.1,0.2,2,0.5,2.5s0.9,0.8,1.9,0.8c0.4,0,1.1-0.1,1.9-0.2v4.6C129.3,58.4,128.1,58.5,127.2,58.5z"/>
			<path class="st0" d="M139.3,58.5c-1.6,0-2.9-0.7-4.1-2.1c-1.1-1.4-1.7-2.9-1.7-4.7c0-1.4,0.2-2.6,0.7-3.8c0.5-1.1,1-2,1.5-2.7
				s1.4-1.4,2.6-2.1c1.2-0.7,2.1-1.2,2.8-1.5c0.6-0.3,1.7-0.7,3.3-1.3c0.3-0.1,0.5-0.2,0.6-0.2V38c0-1.4-0.2-2.6-0.6-3.4
				c-0.4-0.8-1.2-1.2-2.3-1.2c-1,0-1.7,0.3-2.1,1c-0.4,0.7-0.7,1.6-0.7,2.8c0,0.2,0,0.4,0,0.7h-5.7c0-2.7,0.8-4.9,2.3-6.5
				c1.5-1.6,3.6-2.4,6.3-2.4s4.8,0.8,6.3,2.5c1.5,1.6,2.3,3.8,2.3,6.5v13c0,3,0.2,5.4,0.7,7.1h-5.7l-0.8-4.3
				c-0.3,0.6-0.5,1.1-0.7,1.4c-0.2,0.3-0.5,0.7-0.8,1.2c-0.4,0.5-0.7,0.9-1.1,1.1c-0.4,0.3-0.8,0.5-1.3,0.7S140,58.5,139.3,58.5z
				 M142.2,53.8c0.4,0,0.8-0.1,1.2-0.4c0.4-0.2,0.7-0.5,0.9-0.7s0.4-0.5,0.7-0.9c0-0.1,0.1-0.1,0.1-0.2v-7.9
				c-0.2,0.2-0.6,0.4-1.2,0.8c-0.6,0.3-1,0.6-1.3,0.8s-0.7,0.5-1.2,0.9s-0.8,0.7-1.1,1.1c-0.3,0.3-0.5,0.8-0.7,1.3s-0.3,1-0.3,1.6
				C139.3,52.6,140.3,53.8,142.2,53.8z"/>
			<path class="st0" d="M155.1,58.1V19.7h13.5v2.7h-10.1V37h7.9v2.6h-7.9v18.6L155.1,58.1L155.1,58.1z"/>
			<path class="st0" d="M170,45.4V44c0-1.2,0-2.1,0-2.7c0-0.6,0.1-1.5,0.1-2.6c0.1-1.1,0.2-1.9,0.4-2.6c0.2-0.6,0.4-1.3,0.8-2.1
				c0.3-0.8,0.8-1.4,1.3-1.8c0.5-0.4,1.1-0.8,1.9-1.1c0.8-0.3,1.6-0.4,2.6-0.4s1.9,0.1,2.6,0.4c0.8,0.3,1.4,0.7,1.9,1.1
				c0.5,0.4,0.9,1,1.3,1.8c0.3,0.8,0.6,1.5,0.8,2.1s0.3,1.5,0.4,2.6c0.1,1.1,0.1,2,0.1,2.6s0,1.5,0,2.7v1.4c0,1,0,1.7,0,2.3
				c0,0.5,0,1.2-0.1,2.1c0,0.9-0.1,1.6-0.2,2.1c-0.1,0.5-0.2,1.1-0.4,1.8s-0.4,1.3-0.6,1.7c-0.2,0.4-0.5,0.8-0.9,1.3
				s-0.8,0.8-1.2,1.1c-0.5,0.2-1,0.5-1.6,0.6c-0.6,0.2-1.3,0.3-2.1,0.3s-1.5-0.1-2.1-0.3s-1.2-0.4-1.6-0.6c-0.5-0.2-0.9-0.6-1.2-1.1
				c-0.4-0.5-0.7-0.9-0.9-1.3c-0.2-0.4-0.4-1-0.6-1.7c-0.2-0.7-0.3-1.3-0.4-1.8c-0.1-0.5-0.1-1.2-0.2-2.1c0-0.9-0.1-1.6-0.1-2.1
				S170,46.4,170,45.4z M173.4,44v1.4c0,4.2,0.2,7.1,0.7,8.7c0.5,1.6,1.5,2.4,3,2.4s2.5-0.8,3-2.4c0.5-1.6,0.7-4.5,0.7-8.7V44
				c0-1.4,0-2.6,0-3.6s-0.1-1.9-0.2-2.8c-0.1-0.9-0.2-1.6-0.4-2.1s-0.4-1-0.7-1.4s-0.6-0.7-1-0.9s-0.9-0.3-1.4-0.3
				c-0.6,0-1,0.1-1.4,0.3s-0.7,0.5-1,0.9s-0.5,0.9-0.7,1.4s-0.3,1.2-0.4,2.1c-0.1,0.9-0.2,1.8-0.2,2.8
				C173.4,41.4,173.4,42.6,173.4,44z"/>
			<path class="st0" d="M186.2,58.1l5.8-14l-5.7-12.8h3.5l4.4,11.1l4.4-11.1h3.5l-5.7,12.8l5.8,14h-3.3l-4.6-11.9l-4.6,11.9
				C189.7,58.1,186.2,58.1,186.2,58.1z"/>
		</g>
	</g>
	<g>
		<path class="st0" d="M53.8,40.1c1.1-2.7,1.8-5.5,1.8-8.5c-1,0.9-1.6,2.1-2.4,3.1c0.2-1.4,0.6-2.8,0.9-4.3c0.9-3.8,1.3-7.8,1-11.7
			c-0.2-2.6-0.7-5.1-1.2-7.6c-0.5-2.6-0.6-5.3-1.4-7.9c-0.3-1-0.8-2.1-1.7-2.8c-1.1-0.7-2.5-0.3-3.4,0.4C46,2,45,3.6,43.9,4.9
			c-4.5,5.3-8.3,11.2-10.7,17.8c-0.1,0.3-0.3,0.6-0.4,0.9c-0.2-1-0.1-2,0.2-3c0.9-2.9,2.9-5.2,3.9-8c-0.8,0-1.5,0-2.3-0.1
			c0.6-0.7,1.3-1.4,1.8-2.2c-1.8,0.2-3.3,1.4-5,2.1c-0.1-0.4-0.1-0.8-0.2-1.2c-1.3,0.9-2.3,2.1-3.5,3.1c-1.2-1-2.2-2.3-3.5-3.1
			c0,0.4,0,0.8-0.1,1.3c-1.7-0.7-3.1-1.9-5-2.1c0.4,0.8,1.2,1.5,1.7,2.2c-0.7,0-1.5,0.1-2.2,0.1c1,2.7,2.9,5,3.9,7.7
			c0.4,1,0.4,2.1,0.3,3.2c-0.5-1-0.9-2.1-1.3-3.2C19.1,14.8,15.8,9.7,11.8,5c-1.1-1.3-2.1-2.8-3.4-4c-0.7-0.6-2-1.1-3.1-0.8
			C4.4,0.6,3.8,1.4,3.4,2.3C2.5,4.5,2.4,6.9,2,9.2c-0.6,4.1-1.6,8.1-1.6,12.2c0,3.2,0.5,6.3,1.2,9.4c0.3,1.3,0.7,2.6,0.8,3.9
			c-0.8-1-1.4-2.1-2.3-3c0,2.3,0.4,4.7,1.2,6.9c0.7,2,1.7,3.9,2.6,5.9c-0.8-0.4-1.5-0.9-2.2-1.4c0.7,2.7,2.1,5.3,4.1,7.2
			c2.1,2.2,4.7,3.8,7,5.7c1,0.8,1.8,1.8,2.5,2.9c1,1.6,1.4,3.5,1.8,5.4c0.4,1.6,0.5,3.4,1.4,4.8c1.3,2.1,3.6,3.4,6,4
			c3.2,0.9,6.7,0.4,9.6-1.2c1.8-1,3.3-2.7,3.8-4.7c0.7-2.7,0.9-5.5,2.3-8c0.9-1.7,2.3-3,3.8-4.1c2.3-1.7,4.6-3.4,6.5-5.5
			c1.7-1.9,2.9-4.1,3.5-6.6c-0.8,0.4-1.5,0.9-2.2,1.4C52.4,43,53.2,41.6,53.8,40.1z M9.6,25.4c-1.4-0.9-1.1-2.8-2.2-3.9
			C6.7,22,6.8,23,7,23.9c0.2,1,0.6,2,0.6,3.1c-1.1-0.8-1.4-2.1-2.3-2.9c-0.1,1.1,0.1,2.1,0.1,3.2c-1.2-0.5-2.1-1.7-2.4-3
			c-0.5-2.2-0.3-4.6-0.1-6.8C3.1,13.4,4.5,9.7,5.5,6c1.9,4.4,3.7,8.9,4.2,13.6C9.8,21.5,9.9,23.5,9.6,25.4z M21.6,54.3
			c-2.4-0.5-4.6-1.5-6.3-3.3c-3-3.1-4-7.8-3.6-12c2.8,0.6,4.9,2.6,6.6,4.8C20.5,46.8,22,50.5,21.6,54.3z M40.8,50.5
			c-1.7,2-4.1,3.3-6.7,3.7c-0.4-3.6,1-7.2,3-10.2c1.7-2.4,3.9-4.5,6.8-5.2C44.4,43,43.5,47.4,40.8,50.5z M50.3,27.1
			c0-1,0.2-2.1,0.1-3.1c-1.1,0.8-1.3,2.2-2.4,2.9c0.1-1.8,1.3-3.6,0.4-5.5c-1.5,0.8-1,3-2.4,3.9c-0.3-1.7-0.2-3.4-0.2-5.1
			c0.3-5,2.2-9.7,4.2-14.2c1.1,3.8,2.6,7.6,2.8,11.7c0.1,2.4,0.4,4.9-0.4,7.2C52.1,25.9,51.3,26.7,50.3,27.1z"/>
	</g>
</g>
</svg>
